<?xml version="1.0" encoding="utf-8"?>
<!-- Generator: Adobe Illustrator 22.1.0, SVG Export Plug-In . SVG Version: 6.00 Build 0)  -->
<svg version="1.1"
	 id="svg2" xmlns="http://www.w3.org/2000/svg" xmlns:xlink="http://www.w3.org/1999/xlink" x="0px" y="0px" viewBox="0 0 136.1 136.1"
	 style="enable-background:new 0 0 136.1 136.1;">
<style type="text/css">
	.st0{fill:#FFCE35;}
	.st1{fill:#FFFFFF;}
</style>
<g id="layer5" transform="translate(0,-882.28411)">
	<path id="path3481" d="M123.9,948.5c0,31.7-25.7,57.4-57.4,57.4S9.1,980.2,9.1,948.5c0-31.7,25.7-57.4,57.4-57.5
		C98.1,891,123.8,916.7,123.9,948.5"/>
</g>
<g id="layer2" transform="translate(0,-882.28411)">
	<path id="path3402" class="st0" d="M67.5,884.9c-36.3,0-65.6,29.4-65.6,65.7c0,36.3,29.4,65.6,65.7,65.6
		c36.3,0,65.6-29.4,65.6-65.7v-0.1C133.1,914.3,103.7,884.9,67.5,884.9z M67.2,899c28.4,0,51.4,23,51.5,51.4v0.1
		c0,28.4-23,51.4-51.4,51.4c-28.4,0-51.4-23-51.4-51.4C15.8,922,38.8,899,67.2,899z"/>
</g>
<g id="text3351" transform="matrix(0.70710678,-0.70710678,0.70710678,0.70710678,0,0)">
	<path id="path3345" class="st1" d="M-37.1,119.6h15.8V89.1c0-1.3,0.1-2.8,0.6-4.1c1-2.7,3.4-5.9,7.6-5.9c5.1,0,7.5,4.5,7.5,11.1
		v29.3h15.8V89c0-1.3,0.2-3,0.6-4.2c1.1-3.1,3.7-5.7,7.5-5.7c5.2,0,7.7,4.4,7.7,12v28.5H42V88.8c0-15.6-7.6-22.7-17.7-22.7
		c-3.9,0-7.1,0.9-9.9,2.6c-2.5,1.5-4.8,3.5-6.7,6.3H7.4c-2.2-5.5-7.6-8.9-14.3-8.9c-9,0-13.6,4.9-15.8,8.2h-0.3l-0.7-7.1h-13.7
		c0.2,4.6,0.4,10.2,0.4,16.7L-37.1,119.6L-37.1,119.6z"/>
</g>
</svg>
